{
  "accessors": [
    {
      "bufferView": 2,
      "componentType": 5126,
      "count": 5536,
      "max": [
        7.5299510955810547,
        19.256290435791016,
        5.3588838577270508
      ],
      "min": [
        -7.2737250328063965,
        6.3448910713195801,
        -6.0299391746520996
      ],
      "type": "VEC3"
    },
    {
      "bufferView": 2,
      "byteOffset": 66432,
      "componentType": 5126,
      "count": 5536,
      "max": [
        1,
        1,
        1
      ],
      "min": [
        -1,
        -1,
        -1
      ],
      "type": "VEC3"
    },
    {
      "bufferView": 3,
      "componentType": 5126,
      "count": 5536,
      "max": [
        1,
        1,
        1,
        1
      ],
      "min": [
        -1,
        -1,
        -1,
        -1
      ],
      "type": "VEC4"
    },
    {
      "bufferView": 1,
      "componentType": 5126,
      "count": 5536,
      "max": [
        0.99392998218536377,
        0.99410897493362427
      ],
      "min": [
        0.0048779998905956745,
        0.0048779998905956745
      ],
      "type": "VEC2"
    },
    {
      "bufferView": 0,
      "componentType": 5125,
      "count": 19938,
      "max": [
        5535
      ],
      "min": [
        0
      ],
      "type": "SCALAR"
    },
    {
      "bufferView": 2,
      "byteOffset": 132864,
      "componentType": 5126,
      "count": 10150,
      "max": [
        5.0888810157775879,
        3.6373350620269775,
        4.0453910827636719
      ],
      "min": [
        -2.7140839099884033,
        0.10202000290155411,
        -6.3132390975952148
      ],
      "type": "VEC3"
    },
    {
      "bufferView": 2,
      "byteOffset": 254664,
      "componentType": 5126,
      "count": 10150,
      "max": [
        0.9999578595161438,
        1,
        0.99996823072433472
      ],
      "min": [
        -0.99991452693939209,
        -1,
        -0.99996101856231689
      ],
      "type": "VEC3"
    },
    {
      "bufferView": 3,
      "byteOffset": 88576,
      "componentType": 5126,
      "count": 10150,
      "max": [
        1,
        1,
        0.99934530258178711,
        1
      ],
      "min": [
        -0.99982941150665283,
        -1,
        -0.99932891130447388,
        -1
      ],
      "type": "VEC4"
    },
    {
      "bufferView": 1,
      "byteOffset": 44288,
      "componentType": 5126,
      "count": 10150,
      "max": [
        0.99924898147583008,
        0.99922800064086914
      ],
      "min": [
        0.00048600000445730984,
        0.00048600000445730984
      ],
      "type": "VEC2"
    },
    {
      "bufferView": 0,
      "byteOffset": 79752,
      "componentType": 5125,
      "count": 28794,
      "max": [
        10149
      ],
      "min": [
        0
      ],
      "type": "SCALAR"
    },
    {
      "bufferView": 2,
      "byteOffset": 376464,
      "componentType": 5126,
      "count": 20504,
      "max": [
        5.0786480903625488,
        13.328864097595215,
        8.6452732086181641
      ],
      "min": [
        -6.0793228149414062,
        0.34889000654220581,
        -4.2579379081726074
      ],
      "type": "VEC3"
    },
    {
      "bufferView": 2,
      "byteOffset": 622512,
      "componentType": 5126,
      "count": 20504,
      "max": [
        1,
        1,
        1
      ],
      "min": [
        -1,
        -1,
        -1
      ],
      "type": "VEC3"
    },
    {
      "bufferView": 3,
      "byteOffset": 250976,
      "componentType": 5126,
      "count": 20504,
      "max": [
        1,
        1,
        1,
        1
      ],
      "min": [
        -1,
        -1,
        -1,
        -1
      ],
      "type": "VEC4"
    },
    {
      "bufferView": 1,
      "byteOffset": 125488,
      "componentType": 5126,
      "count": 20504,
      "max": [
        1.8062560558319092,
        0.99711501598358154
      ],
      "min": [
        0.0019120000069960952,
        0.0019120000069960952
      ],
      "type": "VEC2"
    },
    {
      "bufferView": 0,
      "byteOffset": 194928,
      "componentType": 5125,
      "count": 90468,
      "max": [
        20503
      ],
      "min": [
        0
      ],
      "type": "SCALAR"
    }
  ],
  "asset": {
    "extras": {
      "author": "shashkinv1ad (https://sketchfab.com/shashkinv1ad)",
      "license": "CC-BY-4.0 (http://creativecommons.org/licenses/by/4.0/)",
      "source": "https://sketchfab.com/3d-models/operating-table-e3a4512227d34b098e2ef0d11c8a80fd",
      "title": "Operating Table"
    },
    "generator": "Sketchfab-10.11.2",
    "version": "2.0"
  },
  "bufferViews": [
    {
      "buffer": 0,
      "byteLength": 556800,
      "byteOffset": 0,
      "name": "floatBufferViews",
      "target": 34963
    },
    {
      "buffer": 0,
      "byteLength": 289520,
      "byteOffset": 556800,
      "byteStride": 8,
      "name": "floatBufferViews",
      "target": 34962
    },
    {
      "buffer": 0,
      "byteLength": 868560,
      "byteOffset": 846320,
      "byteStride": 12,
      "name": "floatBufferViews",
      "target": 34962
    },
    {
      "buffer": 0,
      "byteLength": 579040,
      "byteOffset": 1714880,
      "byteStride": 16,
      "name": "floatBufferViews",
      "target": 34962
    }
  ],
  "buffers": [
    {
      "byteLength": 2293920,
      "uri": "operacoes.bin"
    }
  ],
  "images": [
    {
      "uri": "textures/LAmp_baseColor.png"
    },
    {
      "uri": "textures/LAmp_metallicRoughness.png"
    },
    {
      "uri": "textures/LAmp_emissive.jpeg"
    },
    {
      "uri": "textures/LAmp_normal.png"
    },
    {
      "uri": "textures/Table_baseColor.png"
    },
    {
      "uri": "textures/Table_metallicRoughness.png"
    },
    {
      "uri": "textures/Table_normal.png"
    },
    {
      "uri": "textures/material_baseColor.png"
    },
    {
      "uri": "textures/material_metallicRoughness.png"
    },
    {
      "uri": "textures/material_emissive.png"
    },
    {
      "uri": "textures/material_normal.png"
    }
  ],
  "materials": [
    {
      "alphaMode": "BLEND",
      "doubleSided": true,
      "emissiveFactor": [
        1,
        1,
        1
      ],
      "emissiveTexture": {
        "index": 2,
        "texCoord": 0
      },
      "name": "LAmp",
      "normalTexture": {
        "index": 3,
        "scale": 1,
        "texCoord": 0
      },
      "pbrMetallicRoughness": {
        "baseColorFactor": [
          1,
          1,
          1,
          1
        ],
        "baseColorTexture": {
          "index": 0,
          "texCoord": 0
        },
        "metallicFactor": 1,
        "metallicRoughnessTexture": {
          "index": 1,
          "texCoord": 0
        },
        "roughnessFactor": 1
      }
    },
    {
      "doubleSided": true,
      "name": "Table",
      "normalTexture": {
        "index": 6,
        "scale": 1,
        "texCoord": 0
      },
      "pbrMetallicRoughness": {
        "baseColorFactor": [
          1,
          1,
          1,
          1
        ],
        "baseColorTexture": {
          "index": 4,
          "texCoord": 0
        },
        "metallicFactor": 1,
        "metallicRoughnessTexture": {
          "index": 5,
          "texCoord": 0
        },
        "roughnessFactor": 1
      }
    },
    {
      "doubleSided": true,
      "emissiveFactor": [
        1,
        1,
        1
      ],
      "emissiveTexture": {
        "index": 9,
        "texCoord": 0
      },
      "name": "material",
      "normalTexture": {
        "index": 10,
        "scale": 1,
        "texCoord": 0
      },
      "pbrMetallicRoughness": {
        "baseColorFactor": [
          1,
          1,
          1,
          1
        ],
        "baseColorTexture": {
          "index": 7,
          "texCoord": 0
        },
        "metallicFactor": 1,
        "metallicRoughnessTexture": {
          "index": 8,
          "texCoord": 0
        },
        "roughnessFactor": 1
      }
    }
  ],
  "meshes": [
    {
      "name": "LAMP_LP:LAMP_03_lowLAMP_03polySurface14_LAmp_0",
      "primitives": [
        {
          "attributes": {
            "NORMAL": 1,
            "POSITION": 0,
            "TANGENT": 2,
            "TEXCOORD_0": 3
          },
          "indices": 4,
          "material": 0,
          "mode": 4
        }
      ]
    },
    {
      "name": "LAMP_LP:LAMP_03_lowLAMP_03polySurface14_Table_0",
      "primitives": [
        {
          "attributes": {
            "NORMAL": 6,
            "POSITION": 5,
            "TANGENT": 7,
            "TEXCOORD_0": 8
          },
          "indices": 9,
          "material": 1,
          "mode": 4
        }
      ]
    },
    {
      "name": "LAMP_LP:LAMP_03_lowLAMP_03polySurface14_I_0",
      "primitives": [
        {
          "attributes": {
            "NORMAL": 11,
            "POSITION": 10,
            "TANGENT": 12,
            "TEXCOORD_0": 13
          },
          "indices": 14,
          "material": 2,
          "mode": 4
        }
      ]
    }
  ],
  "nodes": [
    {
      "children": [
        1
      ],
      "name": "RootNode (gltf orientation matrix)",
      "rotation": [
        -0.70710678118654746,
        -0,
        -0,
        0.70710678118654757
      ]
    },
    {
      "children": [
        2
      ],
      "name": "RootNode (model correction matrix)"
    },
    {
      "children": [
        3
      ],
      "matrix": [
        1,
        0,
        0,
        0,
        0,
        0,
        1,
        0,
        0,
        -1,
        0,
        0,
        0,
        0,
        0,
        1
      ],
      "name": "87e36745af34455abffcd7a7c786c1ad.fbx"
    },
    {
      "children": [
        4
      ],
      "name": "RootNode"
    },
    {
      "children": [
        5,
        6,
        7
      ],
      "name": "LAMP_LP:LAMP_03_lowLAMP_03polySurface14"
    },
    {
      "mesh": 0,
      "name": "LAMP_LP:LAMP_03_lowLAMP_03polySurface14_LAmp_0"
    },
    {
      "mesh": 1,
      "name": "LAMP_LP:LAMP_03_lowLAMP_03polySurface14_Table_0"
    },
    {
      "mesh": 2,
      "name": "LAMP_LP:LAMP_03_lowLAMP_03polySurface14_I_0"
    }
  ],
  "samplers": [
    {
      "magFilter": 9729,
      "minFilter": 9987,
      "wrapS": 10497,
      "wrapT": 10497
    }
  ],
  "scene": 0,
  "scenes": [
    {
      "name": "OSG_Scene",
      "nodes": [
        0
      ]
    }
  ],
  "textures": [
    {
      "sampler": 0,
      "source": 0
    },
    {
      "sampler": 0,
      "source": 1
    },
    {
      "sampler": 0,
      "source": 2
    },
    {
      "sampler": 0,
      "source": 3
    },
    {
      "sampler": 0,
      "source": 4
    },
    {
      "sampler": 0,
      "source": 5
    },
    {
      "sampler": 0,
      "source": 6
    },
    {
      "sampler": 0,
      "source": 7
    },
    {
      "sampler": 0,
      "source": 8
    },
    {
      "sampler": 0,
      "source": 9
    },
    {
      "sampler": 0,
      "source": 10
    }
  ]
}

